<svg xmlns="http://www.w3.org/2000/svg" height="48" viewBox="0 96 960 960" width="48"><path fill="#ffffff" d="M480.404 661q-18.822 0-32.113-13.177T435 616.123q0-18.523 13.379-31.823t32.2-13.3q18.821 0 31.621 13.177 12.8 13.177 12.8 31.7T512.112 647.7Q499.225 661 480.404 661Zm-160.281 0q-18.523 0-31.823-13.177t-13.3-31.7q0-18.523 13.177-31.823t31.7-13.3q18.523 0 31.823 13.177t13.3 31.7q0 18.523-13.177 31.823t-31.7 13.3Zm319.298 0Q622 661 608.5 647.823t-13.5-31.7q0-18.523 13.588-31.823 13.587-13.3 31.508-13.3 17.922 0 31.413 13.177t13.491 31.7q0 18.523-13.379 31.823t-32.2 13.3ZM480.404 821q-18.822 0-32.113-13.588Q435 793.825 435 775.904q0-17.922 13.379-31.413t32.2-13.491q18.821 0 31.621 13.379 12.8 13.379 12.8 32.2Q525 794 512.112 807.5 499.225 821 480.404 821Zm-160.281 0q-18.523 0-31.823-13.588-13.3-13.587-13.3-31.508 0-17.922 13.177-31.413t31.7-13.491q18.523 0 31.823 13.379t13.3 32.2Q365 794 351.823 807.5t-31.7 13.5Zm319.298 0Q622 821 608.5 807.412 595 793.825 595 775.904q0-17.922 13.588-31.413Q622.175 731 640.096 731q17.922 0 31.413 13.379t13.491 32.2Q685 794 671.621 807.5t-32.2 13.5ZM190 998q-37.175 0-64.088-27.612Q99 942.775 99 907V306q0-37.588 26.912-64.794Q152.825 214 190 214h59v-61h79v61h304v-61h79v61h59q37.588 0 64.794 27.206Q862 268.412 862 306v601q0 35.775-27.206 63.388Q807.588 998 770 998H190Zm0-91h580V488H190v419Z"/></svg>