<svg xmlns="http://www.w3.org/2000/svg" height="48" viewBox="0 96 960 960" width="48"><path fill="#ffffff" d="M479.885 570q30.477 0 52.796-21.704Q555 526.593 555 496.115q0-30.477-22.283-52.796Q510.433 421 479.956 421q-30.478 0-52.217 22.283Q406 465.567 406 496.044q0 30.478 21.704 52.217Q449.407 570 479.885 570ZM480 996Q312.025 852.903 228.512 730.273 145 607.643 145 503.869q0-157.257 100.951-250.563Q346.902 160 479.761 160q132.858 0 234.548 93.397Q816 346.794 816 504.206q0 103.555-84.013 226.148Q647.975 852.946 480 996Z"/></svg>